<svg xmlns="http://www.w3.org/2000/svg" viewBox="0 0 32 32" width="32" height="32">
  <!-- Background circle -->
  <circle cx="16" cy="16" r="16" fill="#1a3a2a"/>
  
  <!-- Stem -->
  <line x1="16" y1="27" x2="16" y2="9" stroke="#b8922a" stroke-width="1.5" stroke-linecap="round"/>
  
  <!-- Large leaf left -->
  <path d="M16 19 C10 16, 5 10, 7 4 C10 8, 14 13, 16 17 Z" fill="#4a7c59"/>
  <path d="M7 4 C10 10, 13 14, 16 18" fill="none" stroke="#2d5c3e" stroke-width="0.5"/>
  <path d="M7.5 6.5 C10 11, 14 15, 16 18" fill="none" stroke="#3a6b4a" stroke-width="0.4" opacity="0.6"/>

  <!-- Large leaf right -->
  <path d="M16 15 C22 12, 27 6, 25 0 C22 4, 18 9, 16 13 Z" fill="#3d6b4e"/>
  <path d="M25 0 C22 6, 18 10, 16 14" fill="none" stroke="#2d5c3e" stroke-width="0.5"/>
  <path d="M23.5 2 C21 7, 18 11, 16 14" fill="none" stroke="#4a7c59" stroke-width="0.4" opacity="0.6"/>

  <!-- Small leaf left lower -->
  <path d="M16 22 C11 20, 8 16, 10 11 C12 15, 14 19, 16 21 Z" fill="#5a8f6a" opacity="0.9"/>
  
  <!-- Bud top -->
  <ellipse cx="16" cy="8" rx="2.2" ry="3.8" fill="#b8922a" opacity="0.9" transform="rotate(-8 16 8)"/>
  <ellipse cx="16" cy="8" rx="1" ry="2" fill="#d4aa50" opacity="0.7" transform="rotate(-8 16 8)"/>
</svg>
